<?xml version="1.0" encoding="utf-8"?>
<!-- Generator: Adobe Illustrator 16.0.0, SVG Export Plug-In . SVG Version: 6.00 Build 0)  -->
<!DOCTYPE svg PUBLIC "-//W3C//DTD SVG 1.1//EN" "http://www.w3.org/Graphics/SVG/1.1/DTD/svg11.dtd">
<svg version="1.1" id="圖層_1" xmlns="http://www.w3.org/2000/svg" xmlns:xlink="http://www.w3.org/1999/xlink" x="0px" y="0px"
	 width="214.167px" height="73.167px" viewBox="0 0 214.167 73.167" enable-background="new 0 0 214.167 73.167"
	 xml:space="preserve">
<g>
	<g>
		<g>
			<path fill="#FFFFFF" d="M24.127,48.277c3.88,0.455,6.795,1.57,8.741,3.348c1.948,1.78,2.925,4.212,2.925,7.294
				c0,3.424-1.173,6.012-3.517,7.76c-2.341,1.752-5.824,2.625-10.441,2.625c-0.707,0-1.957-0.045-3.749-0.141
				c-1.792-0.094-3.229-0.142-4.314-0.142c-2.057,0-4.069,0.086-6.042,0.255c-0.313,0.019-0.501,0.028-0.566,0.028
				c-0.313,0-0.551-0.056-0.716-0.17c-0.164-0.112-0.247-0.264-0.247-0.453c0-0.378,0.403-0.625,1.209-0.738
				c0.066-0.018,0.115-0.028,0.147-0.028c0.411-0.038,0.772-0.098,1.085-0.187c0.313-0.083,0.584-0.191,0.814-0.324
				c0.643-0.359,1.081-0.855,1.32-1.49c0.236-0.633,0.357-1.708,0.357-3.222V36.528c0-1.456-0.125-2.502-0.371-3.135
				c-0.246-0.634-0.675-1.122-1.281-1.462c-0.248-0.112-0.526-0.209-0.84-0.284c-0.313-0.075-0.674-0.133-1.085-0.17
				c-0.032,0-0.081-0.009-0.147-0.028c-0.806-0.114-1.209-0.322-1.209-0.625c0-0.17,0.083-0.307,0.247-0.413
				c0.165-0.102,0.403-0.155,0.716-0.155c0.082,0,0.328,0.009,0.738,0.028c2.007,0.134,3.964,0.2,5.87,0.2
				c0.476,0,1.36-0.037,2.651-0.113c1.291-0.076,2.336-0.115,3.143-0.115c4.324,0,7.533,0.762,9.63,2.285
				c2.096,1.523,3.145,3.864,3.145,7.023c0,2.271-0.678,4.13-2.034,5.576C28.95,46.588,26.891,47.634,24.127,48.277z M16.484,46.348
				c0,0.756,0.102,1.229,0.309,1.418c0.206,0.189,0.629,0.284,1.268,0.284c3.109,0,5.364-0.64,6.773-1.916
				c1.403-1.277,2.105-3.315,2.105-6.117c0-2.855-0.613-4.984-1.836-6.385c-1.226-1.398-3.087-2.099-5.586-2.099
				c-1.347,0-2.189,0.113-2.527,0.34c-0.338,0.229-0.506,0.834-0.506,1.817V46.348z M16.484,62.438c0,1.912,0.445,3.292,1.331,4.144
				c0.89,0.852,2.334,1.276,4.341,1.276c2.335,0,4.196-0.832,5.586-2.496c1.387-1.665,2.083-3.899,2.083-6.698
				c0-3.196-0.831-5.552-2.491-7.066c-1.66-1.513-4.248-2.271-7.768-2.271h-0.442c-1.267,0-2.022,0.096-2.27,0.286
				c-0.246,0.189-0.37,0.67-0.37,1.445V62.438z"/>
			<path fill="#FFFFFF" d="M43.537,50.458c-0.074,0.511-0.131,1.044-0.168,1.598s-0.055,1.106-0.055,1.661
				c0,3.855,0.852,7.003,2.553,9.44c1.704,2.439,3.896,3.659,6.58,3.659c1.24,0,2.321-0.213,3.248-0.639
				c0.925-0.426,1.851-1.128,2.775-2.109c0.148-0.148,0.333-0.373,0.555-0.669c0.408-0.512,0.76-0.767,1.055-0.767
				c0.166,0,0.302,0.063,0.402,0.191c0.103,0.127,0.154,0.298,0.154,0.51c0,1.321-0.985,2.647-2.957,3.979
				c-1.971,1.329-4.279,1.995-6.927,1.995c-3.812,0-6.952-1.384-9.423-4.151c-2.471-2.77-3.708-6.23-3.708-10.383
				c0-2.045,0.324-4.031,0.975-5.958c0.646-1.927,1.572-3.647,2.775-5.16c1.313-1.638,2.76-2.859,4.344-3.658
				c1.581-0.798,3.354-1.198,5.315-1.198c2.941,0,5.451,1.018,7.523,3.051s3.107,4.425,3.107,7.172c0,0.575-0.078,0.958-0.235,1.15
				c-0.157,0.192-0.569,0.287-1.235,0.287H43.537z M43.87,48.54h11.603c0.37,0,0.633-0.109,0.792-0.334
				c0.156-0.224,0.235-0.61,0.235-1.165c0-2.088-0.51-3.754-1.527-5.001c-1.018-1.245-2.369-1.868-4.051-1.868
				c-1.891,0-3.453,0.74-4.691,2.22C44.989,43.872,44.201,45.92,43.87,48.54z"/>
			<path fill="#FFFFFF" d="M71.395,61.277c0,1.874,0.093,3.115,0.278,3.725c0.184,0.61,0.545,1.108,1.082,1.495
				c0.223,0.179,0.466,0.328,0.734,0.446c0.27,0.119,0.553,0.208,0.848,0.266c0.482,0.122,0.791,0.275,0.931,0.469
				c0.138,0.194,0.208,0.47,0.208,0.827c0,0.238-0.074,0.429-0.222,0.581c-0.148,0.146-0.353,0.22-0.611,0.22
				c-0.036,0-0.693-0.088-1.971-0.267c-1.277-0.178-2.536,0-3.776,0c-1.259,0-2.527-0.178-3.803,0
				c-1.275,0.179-1.924,0.267-1.943,0.267c-0.259,0-0.469-0.074-0.625-0.22c-0.157-0.152-0.234-0.343-0.234-0.581
				c0-0.297,0.066-0.536,0.194-0.715c0.128-0.178,0.444-0.371,0.944-0.581c0.313-0.058,0.602-0.147,0.858-0.266
				c0.26-0.118,0.5-0.267,0.723-0.446c0.537-0.386,0.901-0.884,1.098-1.495c0.193-0.61,0.291-1.851,0.291-3.725V13.238
				c0-1.665-0.103-2.811-0.306-3.435c-0.203-0.625-0.564-1.099-1.083-1.428c-0.241-0.148-0.684-0.342-1.332-0.58
				c-0.094-0.03-0.149-0.045-0.167-0.045c-0.498-0.147-0.822-0.28-0.971-0.4c-0.148-0.12-0.232-0.297-0.25-0.535
				c0-0.625,0.646-1.086,1.944-1.384c0.11-0.029,0.201-0.06,0.276-0.089c1.961-0.416,3.85-0.995,5.662-1.74
				c0.371-0.148,0.582-0.237,0.639-0.267c0.203,0,0.352,0.119,0.443,0.356c0.094,0.24,0.14,0.611,0.14,1.116V61.277z"/>
			<path fill="#FFFFFF" d="M85.384,61.277c0,1.874,0.091,3.115,0.277,3.725c0.186,0.61,0.545,1.108,1.082,1.495
				c0.223,0.179,0.469,0.328,0.734,0.446c0.27,0.119,0.553,0.208,0.849,0.266c0.48,0.122,0.792,0.275,0.931,0.469
				c0.137,0.194,0.208,0.47,0.208,0.827c0,0.238-0.075,0.429-0.224,0.581c-0.147,0.146-0.349,0.22-0.609,0.22
				c-0.037,0-0.695-0.088-1.971-0.267c-1.277-0.178-2.537,0-3.777,0c-1.258,0-2.523-0.178-3.801,0
				c-1.277,0.179-1.927,0.267-1.943,0.267c-0.26,0-0.469-0.074-0.625-0.22c-0.158-0.152-0.236-0.343-0.236-0.581
				c0-0.297,0.064-0.536,0.193-0.715c0.131-0.178,0.445-0.371,0.946-0.581c0.313-0.058,0.599-0.147,0.858-0.266
				c0.26-0.118,0.5-0.267,0.723-0.446c0.537-0.386,0.902-0.884,1.096-1.495c0.194-0.61,0.292-1.851,0.292-3.725V13.238
				c0-1.665-0.103-2.811-0.306-3.435C79.876,9.179,79.517,8.705,79,8.375c-0.24-0.148-0.684-0.342-1.333-0.58
				c-0.093-0.03-0.149-0.045-0.168-0.045c-0.498-0.147-0.823-0.28-0.97-0.4c-0.15-0.12-0.23-0.297-0.25-0.535
				c0-0.625,0.647-1.086,1.943-1.384c0.111-0.029,0.203-0.06,0.278-0.089c1.96-0.416,3.847-0.995,5.661-1.74
				c0.37-0.148,0.584-0.237,0.639-0.267c0.202,0,0.352,0.119,0.445,0.356c0.092,0.24,0.139,0.611,0.139,1.116V61.277z"/>
			<path fill="#FFFFFF" d="M106.04,64.707c-1.351,1.469-2.861,2.592-4.538,3.371c-1.674,0.777-3.398,1.166-5.178,1.166
				c-1.793,0-3.209-0.539-4.244-1.614c-1.037-1.076-1.555-2.529-1.555-4.36c0-2.341,1.021-4.398,3.066-6.166
				c2.045-1.768,6.25-3.982,12.616-6.646v-5.176c0-1.745-0.445-3.034-1.333-3.864c-0.887-0.832-2.267-1.246-4.137-1.246
				c-1.405,0-2.543,0.278-3.412,0.831c-0.871,0.553-1.361,1.332-1.471,2.332c-0.205,1.45-0.479,2.375-0.82,2.78
				c-0.343,0.405-0.884,0.606-1.624,0.606c-0.593,0-1.073-0.223-1.442-0.671c-0.373-0.447-0.558-1.033-0.558-1.756
				c0-1.575,0.902-2.875,2.709-3.897c1.804-1.023,4.185-1.534,7.146-1.534c3.351,0,5.815,0.613,7.396,1.837
				c1.585,1.224,2.377,3.125,2.377,5.701v16.613c0,1.129,0.16,2.001,0.484,2.619c0.325,0.618,0.791,0.927,1.4,0.927
				c0.389,0,0.839-0.208,1.349-0.624c0.508-0.416,0.84-0.624,0.982-0.624c0.17,0,0.294,0.049,0.377,0.145
				c0.083,0.095,0.126,0.238,0.126,0.431c0,0.702-0.495,1.449-1.485,2.235c-0.99,0.788-2.067,1.182-3.233,1.182
				c-1.277,0-2.367-0.416-3.264-1.246C106.879,67.229,106.3,66.11,106.04,64.707z M106.208,51.896
				c-3.757,1.66-6.432,3.263-8.023,4.808c-1.589,1.543-2.386,3.274-2.386,5.191c0,1.491,0.34,2.672,1.027,3.546
				c0.684,0.875,1.609,1.311,2.773,1.311c1.576,0,3.068-0.596,4.485-1.789c1.416-1.194,2.123-2.493,2.123-3.898V51.896z"/>
			<path fill="#FFFFFF" d="M152.132,62.155l5.009-14.076c1.361-3.86,2.418-7.076,3.167-9.649c0.747-2.573,1.123-4.258,1.123-5.051
				c0-0.68-0.136-1.24-0.41-1.675c-0.269-0.434-0.66-0.71-1.168-0.823c-0.427-0.115-0.948-0.217-1.555-0.312
				c-0.741-0.132-1.108-0.322-1.108-0.567c0-0.17,0.072-0.309,0.22-0.413c0.147-0.102,0.363-0.156,0.644-0.156
				c0.08,0,0.669,0.049,1.762,0.144c1.093,0.094,2.133,0.142,3.117,0.142c0.957,0,1.942-0.048,2.96-0.142
				c1.021-0.095,1.573-0.144,1.654-0.144c0.277,0,0.497,0.054,0.653,0.156c0.154,0.104,0.232,0.242,0.232,0.413
				c0,0.264-0.264,0.482-0.787,0.652c-0.082,0.019-0.146,0.038-0.198,0.057c-0.313,0-0.547,0.015-0.701,0.044
				c-0.157,0.027-0.304,0.069-0.435,0.126c-0.689,0.302-1.334,0.946-1.934,1.928c-0.602,0.986-1.327,2.708-2.185,5.167
				l-8.555,24.461c-0.873,2.574-1.563,4.362-2.073,5.364c-0.507,1.002-0.963,1.503-1.353,1.503c-0.199,0-0.438-0.212-0.717-0.638
				c-0.282-0.425-0.527-0.988-0.738-1.688l-9.595-29.061c-0.113-0.321-0.272-0.785-0.468-1.39c-1.083-3.349-2.13-5.174-3.132-5.478
				c-0.248-0.075-0.501-0.145-0.764-0.212c-0.265-0.067-0.495-0.108-0.689-0.127c-0.594-0.114-0.968-0.221-1.126-0.327
				c-0.153-0.104-0.232-0.25-0.232-0.44c0-0.189,0.071-0.331,0.21-0.427c0.14-0.094,0.364-0.142,0.68-0.142
				c0.064,0,0.244,0.02,0.541,0.057c1.74,0.191,3.55,0.285,5.425,0.285c2.219,0,4.381-0.086,6.483-0.256
				c0.314-0.019,0.51-0.029,0.595-0.029c0.246,0,0.436,0.043,0.567,0.129c0.129,0.085,0.197,0.21,0.197,0.383
				c-0.02,0.358-0.423,0.587-1.209,0.681c-0.248,0.039-0.444,0.067-0.594,0.086c-0.804,0.113-1.387,0.35-1.751,0.708
				c-0.362,0.36-0.543,0.88-0.543,1.561c0,0.436,0.115,1.113,0.346,2.029c0.23,0.919,0.665,2.407,1.308,4.47L152.132,62.155z"/>
			<path fill="#FFFFFF" d="M172.541,45.762c0-0.873-0.074-1.485-0.236-1.837c-0.158-0.351-0.44-0.611-0.845-0.783
				c-0.167-0.085-0.371-0.148-0.61-0.191c-0.245-0.043-0.593-0.064-1.054-0.064c-0.039,0-0.104-0.01-0.195-0.033
				c-0.667-0.064-1.001-0.233-1.001-0.51c0.018-0.362,0.462-0.628,1.335-0.798c0.402-0.085,0.737-0.16,0.996-0.224
				c1.318-0.32,2.621-0.74,3.914-1.261c1.295-0.522,1.98-0.784,2.057-0.784c0.223,0,0.381,0.08,0.484,0.24
				c0.103,0.16,0.153,0.41,0.153,0.751v23.289c0,1.341,0.092,2.231,0.278,2.668c0.186,0.438,0.216,0.794,0.756,1.071
				c0.219,0.126,0.467,0.233,0.736,0.318c0.266,0.086,0.546,0.149,0.846,0.191c0.479,0.086,0.789,0.197,0.928,0.336
				c0.141,0.138,0.208,0.336,0.208,0.591c0,0.171-0.082,0.309-0.248,0.415c-0.169,0.107-0.38,0.159-0.639,0.159
				c-0.038,0-0.688,0.13-1.944,0c-1.261-0.126-2.181,0-3.418,0c-1.259,0-2.529-0.126-3.805,0c-1.276,0.13-1.925,0-1.942,0
				c-0.262,0-0.468-0.052-0.625-0.159c-0.157-0.106-0.237-0.244-0.237-0.415c0-0.213,0.065-0.384,0.197-0.51
				c0.128-0.129,0.44-0.267,0.943-0.417c0.313-0.042,0.598-0.105,0.857-0.191c0.261-0.085,0.5-0.192,0.722-0.318
				c0.537-0.299,0.903-0.671,1.098-1.119s0.291-1.321,0.291-2.62V45.762z"/>
			<path fill="#FFFFFF" d="M171.517,32.764c0-0.936,0.309-1.735,0.934-2.396c0.618-0.659,1.376-0.991,2.262-0.991
				c0.86,0,1.604,0.332,2.229,0.991c0.623,0.661,0.937,1.46,0.937,2.396c0,0.937-0.31,1.729-0.92,2.381
				c-0.615,0.649-1.365,0.974-2.246,0.974c-0.886,0-1.644-0.324-2.262-0.974C171.826,34.493,171.517,33.701,171.517,32.764z"/>
			<path fill="#FFFFFF" d="M199.106,64.707c-1.354,1.469-2.865,2.592-4.54,3.371c-1.675,0.777-3.398,1.166-5.174,1.166
				c-1.798,0-3.212-0.539-4.25-1.614s-1.552-2.529-1.552-4.36c0-2.341,1.021-4.398,3.063-6.166
				c2.048-1.768,6.252-3.982,12.616-6.646v-5.176c0-1.745-0.44-3.034-1.329-3.864c-0.891-0.832-2.269-1.246-4.137-1.246
				c-1.407,0-2.544,0.278-3.414,0.831c-0.871,0.553-1.364,1.332-1.471,2.332c-0.204,1.45-0.476,2.375-0.819,2.78
				c-0.344,0.405-0.885,0.606-1.622,0.606c-0.595,0-1.076-0.223-1.448-0.671c-0.371-0.447-0.552-1.033-0.552-1.756
				c0-1.575,0.904-2.875,2.702-3.897c1.807-1.023,4.189-1.534,7.151-1.534c3.348,0,5.814,0.613,7.4,1.837
				c1.576,1.224,2.371,3.125,2.371,5.701v16.613c0,1.129,0.159,2.001,0.485,2.619c0.323,0.618,0.787,0.927,1.4,0.927
				c0.391,0,0.838-0.208,1.346-0.624c0.51-0.416,0.839-0.624,0.987-0.624c0.165,0,0.292,0.049,0.375,0.145
				c0.084,0.095,0.125,0.238,0.125,0.431c0,0.702-0.495,1.449-1.487,2.235c-0.988,0.788-2.064,1.182-3.231,1.182
				c-1.28,0-2.364-0.416-3.261-1.246C199.945,67.229,199.364,66.11,199.106,64.707z M199.27,51.896
				c-3.756,1.66-6.43,3.263-8.021,4.808c-1.592,1.543-2.387,3.274-2.387,5.191c0,1.491,0.342,2.672,1.028,3.546
				c0.684,0.875,1.61,1.311,2.773,1.311c1.573,0,3.069-0.596,4.483-1.789c1.415-1.194,2.122-2.493,2.122-3.898V51.896z"/>
		</g>
	</g>
</g>
</svg>
