<?xml version="1.0" encoding="utf-8"?>
<!-- Generator: Adobe Illustrator 16.0.0, SVG Export Plug-In . SVG Version: 6.00 Build 0)  -->
<!DOCTYPE svg PUBLIC "-//W3C//DTD SVG 1.1//EN" "http://www.w3.org/Graphics/SVG/1.1/DTD/svg11.dtd">
<svg version="1.1" id="圖層_1" xmlns="http://www.w3.org/2000/svg" xmlns:xlink="http://www.w3.org/1999/xlink" x="0px" y="0px"
	 width="100px" height="100px" viewBox="0 0 100 100" enable-background="new 0 0 100 100" xml:space="preserve">
<rect fill="#6EB7BB" width="100" height="100"/>
<g>
	<g>
		<path fill="#FFFFFF" d="M26.085,39.202c2.498,0.292,4.374,1.01,5.625,2.154c1.254,1.145,1.882,2.711,1.882,4.695
			c0,2.204-0.754,3.869-2.263,4.994c-1.506,1.127-3.748,1.689-6.719,1.689c-0.456,0-1.259-0.028-2.413-0.09
			c-1.154-0.063-2.078-0.092-2.777-0.092c-1.323,0-2.618,0.055-3.888,0.163c-0.202,0.013-0.323,0.019-0.364,0.019
			c-0.202,0-0.355-0.037-0.461-0.109c-0.105-0.072-0.159-0.17-0.159-0.292c0-0.244,0.259-0.401,0.778-0.476
			c0.042-0.01,0.074-0.018,0.095-0.018c0.264-0.025,0.496-0.064,0.698-0.121c0.202-0.054,0.376-0.123,0.524-0.207
			c0.413-0.232,0.695-0.552,0.849-0.959c0.152-0.408,0.229-1.099,0.229-2.075V31.64c0-0.937-0.081-1.611-0.238-2.018
			c-0.158-0.407-0.435-0.722-0.825-0.94c-0.16-0.073-0.338-0.134-0.541-0.184c-0.202-0.048-0.434-0.085-0.699-0.109
			c-0.021,0-0.052-0.005-0.094-0.018c-0.519-0.074-0.778-0.208-0.778-0.403c0-0.109,0.053-0.197,0.159-0.266
			c0.106-0.065,0.26-0.1,0.461-0.1c0.053,0,0.211,0.007,0.475,0.018c1.292,0.086,2.552,0.129,3.778,0.129
			c0.307,0,0.875-0.023,1.706-0.073c0.831-0.049,1.503-0.074,2.023-0.074c2.783,0,4.848,0.49,6.197,1.471
			c1.349,0.98,2.024,2.487,2.024,4.521c0,1.462-0.437,2.657-1.31,3.589C29.189,38.114,27.864,38.788,26.085,39.202z M21.167,37.959
			c0,0.487,0.066,0.792,0.199,0.913c0.133,0.122,0.405,0.184,0.816,0.184c2.001,0,3.452-0.412,4.359-1.233
			c0.903-0.822,1.355-2.134,1.355-3.937c0-1.838-0.395-3.208-1.183-4.109c-0.789-0.9-1.986-1.352-3.595-1.352
			c-0.867,0-1.408,0.073-1.626,0.219c-0.218,0.147-0.326,0.537-0.326,1.169L21.167,37.959L21.167,37.959z M21.167,48.314
			c0,1.23,0.287,2.119,0.857,2.668c0.572,0.547,1.502,0.82,2.793,0.82c1.503,0,2.701-0.535,3.595-1.607
			c0.893-1.071,1.341-2.509,1.341-4.311c0-2.056-0.535-3.573-1.604-4.547c-1.069-0.973-2.734-1.46-5-1.46h-0.284
			c-0.815,0-1.301,0.062-1.46,0.184c-0.159,0.122-0.239,0.431-0.239,0.93L21.167,48.314L21.167,48.314z"/>
		<path fill="#FFFFFF" d="M38.577,40.605c-0.048,0.328-0.084,0.671-0.108,1.028c-0.024,0.356-0.036,0.712-0.036,1.068
			c0,2.481,0.548,4.507,1.644,6.075c1.096,1.57,2.507,2.355,4.235,2.355c0.797,0,1.493-0.137,2.09-0.41
			c0.595-0.275,1.191-0.728,1.786-1.359c0.095-0.095,0.214-0.24,0.356-0.431c0.263-0.329,0.489-0.492,0.679-0.492
			c0.107,0,0.195,0.04,0.259,0.121c0.066,0.084,0.099,0.193,0.099,0.33c0,0.849-0.633,1.704-1.902,2.56
			c-1.27,0.854-2.754,1.284-4.458,1.284c-2.453,0-4.475-0.891-6.064-2.671c-1.59-1.782-2.386-4.01-2.386-6.682
			c0-1.316,0.208-2.594,0.628-3.835c0.416-1.239,1.011-2.347,1.786-3.321c0.845-1.053,1.776-1.839,2.795-2.353
			c1.018-0.515,2.159-0.772,3.42-0.772c1.893,0,3.508,0.655,4.841,1.963c1.333,1.309,2,2.848,2,4.616c0,0.37-0.05,0.616-0.152,0.739
			c-0.101,0.124-0.366,0.185-0.794,0.185H38.577V40.605z M38.792,39.371h7.467c0.238,0,0.407-0.07,0.51-0.214
			c0.101-0.145,0.152-0.394,0.152-0.751c0-1.344-0.329-2.416-0.983-3.218c-0.655-0.802-1.524-1.203-2.607-1.203
			c-1.217,0-2.223,0.476-3.019,1.429C39.512,36.366,39.004,37.684,38.792,39.371z"/>
		<path fill="#FFFFFF" d="M56.505,47.568c0,1.205,0.06,2.004,0.179,2.396c0.117,0.392,0.351,0.714,0.695,0.964
			c0.145,0.114,0.301,0.211,0.473,0.286c0.174,0.077,0.355,0.134,0.545,0.171c0.311,0.079,0.51,0.178,0.6,0.303
			c0.089,0.125,0.134,0.301,0.134,0.531c0,0.154-0.048,0.275-0.144,0.373c-0.094,0.096-0.228,0.143-0.394,0.143
			c-0.022,0-0.446-0.057-1.269-0.172s-1.633,0-2.43,0c-0.812,0-1.627-0.115-2.449,0c-0.82,0.115-1.238,0.172-1.25,0.172
			c-0.168,0-0.301-0.047-0.402-0.143c-0.102-0.098-0.15-0.219-0.15-0.373c0-0.189,0.043-0.346,0.125-0.459
			c0.084-0.117,0.287-0.238,0.608-0.375c0.201-0.039,0.388-0.095,0.552-0.172c0.167-0.076,0.322-0.172,0.465-0.287
			c0.347-0.248,0.58-0.569,0.707-0.963c0.125-0.392,0.188-1.192,0.188-2.396V16.651c0-1.072-0.065-1.809-0.197-2.211
			c-0.13-0.402-0.362-0.707-0.696-0.918c-0.155-0.095-0.44-0.22-0.857-0.373c-0.061-0.019-0.096-0.029-0.107-0.029
			c-0.32-0.095-0.529-0.18-0.625-0.258c-0.096-0.077-0.148-0.191-0.16-0.345c0-0.402,0.416-0.699,1.25-0.89
			c0.07-0.019,0.129-0.039,0.178-0.058c1.262-0.267,2.478-0.639,3.644-1.119c0.239-0.095,0.375-0.152,0.411-0.172
			c0.131,0,0.227,0.077,0.285,0.229c0.061,0.154,0.09,0.394,0.09,0.717L56.505,47.568L56.505,47.568z"/>
		<path fill="#FFFFFF" d="M65.508,47.568c0,1.205,0.059,2.004,0.18,2.396c0.119,0.392,0.351,0.714,0.696,0.964
			c0.144,0.114,0.302,0.211,0.472,0.286c0.175,0.077,0.356,0.134,0.547,0.171c0.309,0.079,0.51,0.178,0.6,0.303
			c0.088,0.125,0.133,0.301,0.133,0.531c0,0.154-0.048,0.275-0.144,0.373c-0.095,0.096-0.224,0.143-0.394,0.143
			c-0.022,0-0.445-0.057-1.268-0.172s-1.633,0-2.432,0c-0.809,0-1.623-0.115-2.445,0c-0.821,0.115-1.24,0.172-1.25,0.172
			c-0.168,0-0.303-0.047-0.403-0.143c-0.102-0.098-0.151-0.219-0.151-0.373c0-0.189,0.041-0.346,0.125-0.459
			c0.082-0.117,0.285-0.238,0.607-0.375c0.201-0.039,0.385-0.095,0.553-0.172c0.168-0.076,0.32-0.172,0.465-0.287
			c0.346-0.248,0.58-0.569,0.705-0.963c0.125-0.392,0.188-1.192,0.188-2.396V16.651c0-1.072-0.065-1.809-0.196-2.211
			c-0.133-0.401-0.363-0.706-0.697-0.918c-0.153-0.095-0.439-0.22-0.857-0.373c-0.061-0.019-0.096-0.029-0.107-0.029
			c-0.32-0.095-0.531-0.18-0.625-0.258c-0.097-0.077-0.147-0.191-0.162-0.345c0-0.402,0.418-0.699,1.252-0.89
			c0.07-0.019,0.129-0.039,0.179-0.058c1.262-0.267,2.476-0.639,3.644-1.119c0.238-0.095,0.377-0.152,0.411-0.172
			c0.129,0,0.226,0.077,0.286,0.229c0.059,0.154,0.089,0.394,0.089,0.717L65.508,47.568L65.508,47.568z"/>
		<path fill="#FFFFFF" d="M78.801,49.775c-0.869,0.946-1.839,1.668-2.92,2.168c-1.076,0.5-2.188,0.75-3.332,0.75
			c-1.154,0-2.066-0.346-2.732-1.037c-0.666-0.693-1-1.628-1-2.807c0-1.506,0.656-2.83,1.973-3.969
			c1.316-1.137,4.021-2.562,8.12-4.276v-3.332c0-1.122-0.287-1.952-0.859-2.486c-0.571-0.535-1.458-0.802-2.661-0.802
			c-0.904,0-1.638,0.18-2.197,0.536c-0.561,0.355-0.875,0.857-0.945,1.501c-0.133,0.932-0.309,1.528-0.528,1.789
			c-0.221,0.26-0.569,0.389-1.046,0.389c-0.381,0-0.689-0.144-0.928-0.431c-0.24-0.289-0.359-0.666-0.359-1.13
			c0-1.015,0.58-1.851,1.744-2.509c1.16-0.658,2.693-0.987,4.598-0.987c2.156,0,3.743,0.395,4.76,1.183
			c1.021,0.786,1.531,2.011,1.531,3.668v10.691c0,0.727,0.104,1.289,0.313,1.686c0.208,0.399,0.509,0.597,0.9,0.597
			c0.25,0,0.541-0.135,0.867-0.402c0.329-0.268,0.543-0.4,0.635-0.4c0.107,0,0.187,0.032,0.242,0.093
			c0.051,0.063,0.08,0.154,0.08,0.278c0,0.451-0.318,0.934-0.957,1.438c-0.636,0.508-1.328,0.762-2.078,0.762
			c-0.822,0-1.524-0.269-2.102-0.803C79.341,51.396,78.968,50.678,78.801,49.775z M78.91,41.53c-2.418,1.069-4.139,2.1-5.164,3.094
			c-1.021,0.994-1.536,2.107-1.536,3.34c0,0.96,0.22,1.72,0.662,2.283c0.44,0.563,1.035,0.844,1.785,0.844
			c1.014,0,1.974-0.384,2.885-1.151c0.912-0.769,1.368-1.605,1.368-2.509V41.53L78.91,41.53z"/>
	</g>
	<g>
		<path fill="#FFFFFF" d="M37.798,85.325l3.223-9.058c0.876-2.484,1.556-4.554,2.039-6.211c0.48-1.656,0.723-2.74,0.723-3.25
			c0-0.438-0.088-0.799-0.264-1.078c-0.174-0.279-0.425-0.457-0.752-0.531c-0.274-0.073-0.609-0.139-1-0.199
			c-0.478-0.085-0.713-0.207-0.713-0.365c0-0.109,0.046-0.199,0.141-0.266c0.095-0.066,0.234-0.1,0.415-0.1
			c0.052,0,0.431,0.031,1.134,0.092c0.704,0.061,1.373,0.092,2.006,0.092c0.616,0,1.249-0.031,1.904-0.092
			c0.658-0.061,1.014-0.092,1.065-0.092c0.179,0,0.32,0.033,0.421,0.1c0.098,0.066,0.148,0.156,0.148,0.266
			c0,0.17-0.169,0.311-0.506,0.42c-0.053,0.012-0.093,0.023-0.127,0.036c-0.202,0-0.353,0.011-0.451,0.028
			c-0.101,0.018-0.196,0.044-0.28,0.08c-0.442,0.195-0.858,0.611-1.245,1.242c-0.387,0.635-0.854,1.744-1.407,3.326l-5.505,15.741
			c-0.562,1.657-1.006,2.808-1.334,3.451c-0.327,0.646-0.62,0.97-0.871,0.97c-0.128,0-0.282-0.139-0.461-0.412
			c-0.181-0.273-0.339-0.637-0.475-1.086L29.45,69.729c-0.073-0.207-0.176-0.506-0.301-0.895c-0.698-2.156-1.372-3.33-2.017-3.525
			c-0.159-0.047-0.321-0.094-0.491-0.138c-0.169-0.043-0.318-0.069-0.444-0.082c-0.382-0.073-0.622-0.144-0.724-0.21
			c-0.098-0.066-0.149-0.16-0.149-0.283c0-0.121,0.047-0.214,0.136-0.275c0.089-0.061,0.234-0.092,0.438-0.092
			c0.042,0,0.157,0.015,0.348,0.037c1.12,0.123,2.284,0.184,3.491,0.184c1.429,0,2.819-0.055,4.173-0.165
			c0.201-0.013,0.328-0.019,0.382-0.019c0.158,0,0.281,0.027,0.365,0.082c0.083,0.055,0.127,0.135,0.127,0.248
			c-0.013,0.229-0.273,0.375-0.778,0.438c-0.16,0.025-0.287,0.043-0.384,0.055c-0.517,0.072-0.892,0.225-1.126,0.456
			c-0.232,0.231-0.35,0.565-0.35,1.004c0,0.281,0.074,0.716,0.223,1.306c0.148,0.592,0.427,1.549,0.841,2.877L37.798,85.325z"/>
		<path fill="#FFFFFF" d="M50.932,74.775c0-0.562-0.047-0.955-0.151-1.18c-0.103-0.228-0.283-0.395-0.543-0.505
			c-0.108-0.056-0.239-0.096-0.394-0.124c-0.157-0.027-0.381-0.042-0.677-0.042c-0.025,0-0.068-0.006-0.126-0.021
			c-0.43-0.041-0.645-0.149-0.645-0.328c0.013-0.232,0.298-0.403,0.859-0.512c0.26-0.057,0.474-0.104,0.641-0.146
			c0.849-0.207,1.687-0.478,2.519-0.813c0.833-0.336,1.275-0.504,1.322-0.504c0.145,0,0.246,0.051,0.313,0.154
			s0.098,0.264,0.098,0.482v14.988c0,0.863,0.061,1.436,0.18,1.717c0.121,0.283,0.139,0.512,0.488,0.691
			c0.141,0.079,0.3,0.148,0.472,0.202c0.173,0.058,0.353,0.097,0.544,0.124c0.309,0.055,0.508,0.126,0.598,0.217
			c0.09,0.088,0.133,0.215,0.133,0.379c0,0.11-0.053,0.198-0.16,0.269c-0.106,0.067-0.242,0.103-0.41,0.103
			c-0.023,0-0.442,0.084-1.25,0c-0.813-0.082-1.404,0-2.199,0c-0.811,0-1.628-0.082-2.45,0c-0.821,0.084-1.238,0-1.249,0
			c-0.169,0-0.301-0.033-0.403-0.103c-0.101-0.069-0.152-0.157-0.152-0.269c0-0.137,0.042-0.246,0.127-0.328
			c0.082-0.082,0.283-0.17,0.607-0.268c0.202-0.027,0.385-0.066,0.551-0.124c0.168-0.054,0.321-0.123,0.465-0.202
			c0.346-0.193,0.581-0.434,0.707-0.722c0.125-0.289,0.188-0.851,0.188-1.687V74.775L50.932,74.775z"/>
		<path fill="#FFFFFF" d="M50.273,66.411c0-0.603,0.199-1.117,0.601-1.542c0.397-0.424,0.886-0.639,1.456-0.639
			c0.555,0,1.031,0.213,1.436,0.639c0.4,0.425,0.604,0.939,0.604,1.542s-0.201,1.112-0.594,1.532
			c-0.396,0.418-0.879,0.627-1.444,0.627c-0.569,0-1.058-0.209-1.456-0.627C50.472,67.523,50.273,67.014,50.273,66.411z"/>
		<path fill="#FFFFFF" d="M68.027,86.969c-0.871,0.945-1.842,1.668-2.922,2.17c-1.078,0.498-2.187,0.75-3.33,0.75
			c-1.157,0-2.066-0.349-2.734-1.039c-0.669-0.693-1-1.627-1-2.807c0-1.506,0.658-2.83,1.97-3.969
			c1.319-1.139,4.026-2.563,8.12-4.276v-3.332c0-1.122-0.281-1.952-0.855-2.485c-0.573-0.535-1.459-0.803-2.662-0.803
			c-0.905,0-1.637,0.18-2.197,0.536c-0.561,0.354-0.877,0.856-0.946,1.501c-0.131,0.932-0.307,1.528-0.526,1.789
			c-0.221,0.26-0.57,0.389-1.045,0.389c-0.383,0-0.691-0.144-0.932-0.431c-0.238-0.289-0.355-0.665-0.355-1.13
			c0-1.016,0.582-1.852,1.74-2.51c1.162-0.657,2.695-0.986,4.603-0.986c2.153,0,3.741,0.395,4.762,1.184
			c1.015,0.787,1.526,2.01,1.526,3.668v10.69c0,0.728,0.102,1.288,0.313,1.687c0.207,0.398,0.506,0.598,0.899,0.598
			c0.252,0,0.54-0.135,0.866-0.402c0.328-0.27,0.541-0.402,0.636-0.402c0.106,0,0.188,0.033,0.241,0.094
			c0.054,0.063,0.08,0.152,0.08,0.277c0,0.451-0.317,0.934-0.957,1.438c-0.635,0.508-1.328,0.761-2.078,0.761
			c-0.823,0-1.522-0.269-2.1-0.803C68.568,88.592,68.195,87.871,68.027,86.969z M68.133,78.725c-2.417,1.068-4.137,2.1-5.16,3.094
			c-1.024,0.994-1.537,2.106-1.537,3.34c0,0.961,0.221,1.72,0.662,2.283c0.44,0.563,1.035,0.844,1.785,0.844
			c1.012,0,1.975-0.385,2.885-1.151c0.912-0.769,1.365-1.604,1.365-2.509V78.725L68.133,78.725z"/>
	</g>
</g>
</svg>
