<?xml version="1.0" encoding="utf-8"?>
<!-- Generator: Adobe Illustrator 22.0.0, SVG Export Plug-In . SVG Version: 6.00 Build 0)  -->
<svg version="1.1" id="圖層_1" xmlns="http://www.w3.org/2000/svg" xmlns:xlink="http://www.w3.org/1999/xlink" x="0px" y="0px"
	 viewBox="0 0 70.7 75.7" style="enable-background:new 0 0 70.7 75.7;" xml:space="preserve">
<style type="text/css">
	.st0{fill:#FBB03B;}
	.st1{fill:#FFFFFF;}
</style>
<polygon class="st0" points="65,72.7 34.9,57.5 4.9,72.7 4.9,4.4 65,4.4 "/>
<g>
	<g>
		<path class="st1" d="M19.7,26.5h-2.9v2.3h-1.1v-2.3h-5.3v-1.1h5.3V23h1.1v2.4h2.9V26.5z M30,31.7H17.7c-0.1,1.2-0.2,2.1-0.3,2.8
			h10c-0.1,1.8-0.3,3.3-0.5,4.7c-0.2,1.3-0.5,2.2-0.7,2.5c-0.3,0.3-0.6,0.6-1,0.8c-0.4,0.2-1.2,0.3-2.4,0.3h-1.7l-0.5-1.1
			c0.8,0,1.5,0,2.2,0c1,0,1.6-0.1,1.8-0.2c0.2-0.1,0.4-0.3,0.6-0.5s0.3-0.9,0.5-2c0.2-1.1,0.3-2.2,0.4-3.3h-8.8
			c-0.3,1.5-0.9,2.9-2,4.2s-2.4,2.3-3.9,3l-0.8-0.9c1.2-0.6,2.2-1.3,3.2-2.2s1.6-1.9,2-2.9c0.4-1,0.6-2.7,0.7-5.1h-6.1v-1.1h9.7
			c-0.3-0.6-0.7-1.3-1.2-2l1.2-0.5c0.6,0.9,1,1.8,1.4,2.5H30V31.7z M30,26.5h-5.3v2.3h-1.2v-2.3h-2.8v-1.1h2.8V23h1.2v2.4H30V26.5z"
			/>
		<path class="st1" d="M57.1,33.3l-0.6,1c-2.3-1.3-5.2-2.6-8.6-4v3.2h6.1v9.2h-1.2v-1.2h-11v1.2h-1.2v-9.2h6.1v-4
			c-2.5,2.2-5.3,3.7-8.4,4.7l-0.8-1c3.2-1,6-2.4,8.3-4.4h-8v-1.1h8.9v-2.4c-2.1,0.2-4.4,0.3-6.9,0.3l-0.5-1.1c0.5,0,1,0,1.5,0
			c4.8,0,9.2-0.5,13.2-1.5l0.6,1c-1.9,0.5-4.2,0.8-6.7,1.1v2.5h9.1v1.1h-9.1v0.4C51.7,30.6,54.8,32,57.1,33.3z M52.8,37v-2.3h-11V37
			H52.8z M52.8,40.4v-2.3h-11v2.3H52.8z"/>
	</g>
</g>
</svg>
