<?xml version="1.0" encoding="utf-8"?>
<!-- Generator: Adobe Illustrator 22.0.0, SVG Export Plug-In . SVG Version: 6.00 Build 0)  -->
<svg version="1.1" id="圖層_1" xmlns="http://www.w3.org/2000/svg" xmlns:xlink="http://www.w3.org/1999/xlink" x="0px" y="0px"
	 viewBox="0 0 70.7 75.7" style="enable-background:new 0 0 70.7 75.7;" xml:space="preserve">
<style type="text/css">
	.st0{fill:#FBB03B;}
	.st1{fill:#FFFFFF;}
</style>
<polygon class="st0" points="65,72.7 34.9,57.5 4.9,72.7 4.9,4.4 65,4.4 "/>
<g>
	<g>
		<path class="st1" d="M30.1,36.2h-8.6v4.9c0,0.5-0.1,0.9-0.4,1.2s-0.7,0.4-1.3,0.5c-0.6,0-1.4,0.1-2.4,0.1c-0.5,0-0.9,0-1.3,0
			l-0.5-1.2c0.6,0,1.3,0,2,0c1.4,0,2.1-0.1,2.3-0.2c0.2-0.1,0.3-0.3,0.3-0.6v-4.6h-9.8V35h9.8v-4H12v-1.2h8.2v-4
			c-2.6,0.3-5.3,0.5-7.9,0.5l-0.5-1.1c6.8-0.1,12.1-0.8,16-2l0.7,1c-2.2,0.6-4.5,1.1-7.1,1.4v4.2h7.3V31h-7.3v4h8.6V36.2z"/>
		<path class="st1" d="M44.7,32.9c-0.9,0.4-1.8,0.8-2.8,1.2v7.3c0,0.4-0.2,0.8-0.5,1.1s-1.3,0.4-2.8,0.4l-0.5-1.3c0.5,0,0.9,0,1.3,0
			c0.6,0,1,0,1.2-0.1s0.2-0.3,0.2-0.5v-6.5c-0.8,0.3-1.8,0.6-3,0.9l-0.4-1.1c1.3-0.4,2.4-0.7,3.4-1.1v-5.1h-3.2V27h3.2v-4h1.2v4h2.5
			v1.2h-2.5v4.6c0.6-0.2,1.5-0.5,2.5-1L44.7,32.9z M57.2,41.9l-0.7,1c-2.4-1-4.3-2.2-5.6-3.4c-1.9,1.3-4.1,2.5-6.7,3.4c0,0,0,0,0,0
			c0,0,0,0,0,0c0,0-0.1-0.1-0.2-0.2c-0.1-0.1-0.3-0.4-0.5-0.8c2.3-0.7,4.5-1.8,6.6-3.2c-1.5-1.7-2.6-3.8-3.4-6.3h-1v-1.1h4.7v-3.7
			h-5v-1.1h5V23h1.2v3.4h5.2v1.1h-5.2v3.7h4.2v1.1c-0.4,1.7-1,3-1.7,3.9c-0.7,1-1.4,1.8-2.3,2.5C53.1,39.9,54.9,41,57.2,41.9z
			 M54.6,32.4h-6.6c0.7,2.2,1.7,4,3,5.6C52.8,36.5,54,34.6,54.6,32.4z"/>
	</g>
</g>
</svg>
