<?xml version="1.0" encoding="utf-8"?>
<!-- Generator: Adobe Illustrator 22.0.0, SVG Export Plug-In . SVG Version: 6.00 Build 0)  -->
<svg version="1.1" id="圖層_1" xmlns="http://www.w3.org/2000/svg" xmlns:xlink="http://www.w3.org/1999/xlink" x="0px" y="0px"
	 viewBox="0 0 70.7 75.7" style="enable-background:new 0 0 70.7 75.7;" xml:space="preserve">
<style type="text/css">
	.st0{fill:#FBB03B;}
	.st1{fill:#FFFFFF;}
</style>
<polygon class="st0" points="65,72.7 34.9,57.5 4.9,72.7 4.9,4.4 65,4.4 "/>
<g>
	<g>
		<path class="st1" d="M17.2,26.5h-6.8v-1.1h3.2c-0.1-0.5-0.4-1.2-0.8-2.1l1-0.4c0.5,1,0.8,1.8,0.9,2.5h2.5V26.5z M16.7,29.6H11
			v-1.1h5.7V29.6z M16.7,33.1H11V32h5.7V33.1z M16.6,42.3h-1.1V41h-3.2v1.8h-1.1v-7.5h5.5V42.3z M15.4,39.9v-3.4h-3.2v3.4H15.4z
			 M23.2,24.7c0,0.3-0.4,1.2-1.2,2.8c-0.8,1.6-2.1,3.2-3.9,4.7l-0.8-0.7c1.2-1.1,2.1-2,2.8-2.9c-0.6-0.6-1.3-1.2-2-1.7l0.7-0.7
			c0.5,0.3,1.1,0.8,1.9,1.5c0.7-1.1,1.1-2.1,1.4-2.9h-4v-1h5.2V24.7z M29.8,42.3H17.4v-1.1h3.6c-0.1-0.6-0.5-1.7-1.1-3.3l0.8-0.7H19
			v-4.7h9v4.7h-1.6l0.8,0.7c-0.5,1.4-0.9,2.5-1.2,3.3h3.8V42.3z M26.8,36.2v-2.5h-6.6v2.5H26.8z M26.2,30.9h-5.5v-1h5.5V30.9z
			 M26.1,37.2h-5.2c0.5,1,0.9,2.4,1.3,4h2.6C25.3,40.3,25.7,39,26.1,37.2z M30.1,31.2l-0.7,0.9c-2.9-2.3-4.7-5.1-5.5-8.4l1-0.6
			c0.3,0.9,0.5,1.6,0.6,2.1c0.6-0.5,1.3-1,1.9-1.8l0.7,0.7c-0.5,0.6-1.2,1.3-2.2,2.1c0.3,0.6,0.5,1.1,0.8,1.4c0.6-0.4,1.3-1.1,2-2.1
			l0.8,0.6c-0.7,0.9-1.4,1.7-2.2,2.3C28,29.5,29,30.4,30.1,31.2z"/>
		<path class="st1" d="M41.7,38.5c-1,1.6-2.1,3-3.5,4.3L37.4,42c1.6-1.5,2.7-2.9,3.4-4.2L41.7,38.5z M44.2,36.7h-5.8V24.1h5.8V36.7z
			 M43.1,29.6v-4.3h-3.6v4.3H43.1z M43.1,35.6v-4.9h-3.6v4.9H43.1z M45.8,42.6l-1.1,0.3c-0.1-1.5-0.4-3.1-0.8-4.6L45,38
			C45.5,40,45.8,41.6,45.8,42.6z M55.9,23.8c0,0.5-0.1,1.5-0.2,2.9c-0.1,1.5-0.3,2.3-0.5,2.6s-0.4,0.5-0.7,0.7s-0.8,0.3-1.5,0.3
			c-0.5,0-0.9,0-1.4-0.1l-0.5-1.1c0.5,0,1.1,0.1,1.5,0.1c0.8,0,1.2-0.1,1.4-0.2s0.3-0.6,0.4-1.3c0.1-0.7,0.2-1.7,0.2-2.8h-3.8
			c-0.5,2.9-2.1,4.8-4.9,6l-0.7-0.9c2.6-1.1,4.1-2.8,4.4-5h-4.1v-1.1H55.9z M55.4,36.9h-8.9v-5.6h8.9V36.9z M54.3,35.8v-3.4h-6.6
			v3.4H54.3z M51.3,42.6L50.2,43c-0.4-1.5-1-3-1.8-4.7l1.1-0.4C50.2,39.3,50.8,40.8,51.3,42.6z M56.8,42.4l-1,0.6
			c-0.5-1.1-1.4-2.7-2.6-4.6l0.9-0.5C55.3,39.3,56.1,40.8,56.8,42.4z"/>
	</g>
</g>
</svg>
