<?xml version="1.0" encoding="utf-8"?>
<!-- Generator: Adobe Illustrator 22.0.0, SVG Export Plug-In . SVG Version: 6.00 Build 0)  -->
<svg version="1.1" id="圖層_1" xmlns="http://www.w3.org/2000/svg" xmlns:xlink="http://www.w3.org/1999/xlink" x="0px" y="0px"
	 viewBox="0 0 70.7 75.7" style="enable-background:new 0 0 70.7 75.7;" xml:space="preserve">
<style type="text/css">
	.st0{fill:#FBB03B;}
	.st1{fill:#FFFFFF;}
</style>
<polygon class="st0" points="65,72.7 34.9,57.5 4.9,72.7 4.9,4.4 65,4.4 "/>
<g>
	<g>
		<path class="st1" d="M16.7,26.6h-6.2v-1.1h2.8c-0.2-0.6-0.5-1.3-1-2.1l1.1-0.4c0.5,0.9,0.8,1.7,1.1,2.5h2.1V26.6z M16.3,29.7H11
			v-1.1h5.3V29.7z M16.3,33.2H11v-1.1h5.3V33.2z M16.1,42.3H15v-0.8h-2.5v1.3h-1.1v-7.4h4.8V42.3z M15,40.4v-3.9h-2.5v3.9H15z
			 M30,35.9H18.4v-5.2c-0.4,0.4-0.7,0.8-0.9,1.1l-0.8-0.9c1.2-1.2,2.2-2.8,2.9-4.6l1.1,0.3c-0.1,0.4-0.3,0.9-0.6,1.4h4
			c-0.2-0.4-0.4-0.8-0.7-1.2l1-0.5c0.4,0.6,0.7,1.2,0.9,1.7h4.3v1.1h-4.8v1.2h4.4v1.1h-4.4v1.2h4.4v1.1h-4.4v1.2H30V35.9z
			 M30.2,41.9L29.6,43c-2.1-0.4-4-1-5.7-1.7c-1.8,0.7-3.9,1.3-6.3,1.6l-0.7-1.1c2.3-0.3,4.2-0.7,5.6-1.2C21.2,39.9,20,39,19,38h-1.1
			V37h11.3V38c-1.3,1.1-2.5,1.9-3.8,2.6C26.9,41.2,28.5,41.6,30.2,41.9z M22.3,26.6h-1.1v-1h-3.7v-1.1h3.7v-1.3h1.1V26.6z
			 M23.6,30.3v-1.2h-4v1.2H23.6z M23.6,32.5v-1.2h-4v1.2H23.6z M23.6,34.8v-1.2h-4v1.2H23.6z M27.3,38h-6.7c1.2,0.9,2.3,1.6,3.4,2.1
			C25.1,39.6,26.2,38.9,27.3,38z M30,25.6h-3.5v1h-1.1v-3.4h1.1v1.3H30V25.6z"/>
		<path class="st1" d="M44.2,37.4c-1.6,0.9-3.8,2.1-6.4,3.4l-0.5-1c1.4-0.7,2.4-1.2,3.1-1.6V32h-2.6v-1.1h2.6v-5.2h-3v-1.1h6.7v1.1
			h-2.6v5.2h2.3V32h-2.3v5.6c0.8-0.4,1.6-0.8,2.5-1.4L44.2,37.4z M57.1,42.3h-13v-1.1H50V38h-5v-1.1h5v-2.8h-4.8V23.7h10.9v10.5
			h-4.9v2.8h5.2V38h-5.2v3.2h6V42.3z M50,28.3v-3.5h-3.7v3.5H50z M50,33v-3.6h-3.7V33H50z M54.9,28.3v-3.5h-3.8v3.5H54.9z M54.9,33
			v-3.6h-3.8V33H54.9z"/>
	</g>
</g>
</svg>
