<?xml version="1.0" encoding="utf-8"?>
<!-- Generator: Adobe Illustrator 22.0.0, SVG Export Plug-In . SVG Version: 6.00 Build 0)  -->
<svg version="1.1" id="圖層_1" xmlns="http://www.w3.org/2000/svg" xmlns:xlink="http://www.w3.org/1999/xlink" x="0px" y="0px"
	 viewBox="0 0 70.7 75.7" style="enable-background:new 0 0 70.7 75.7;" xml:space="preserve">
<style type="text/css">
	.st0{fill:#6FB8BC;}
	.st1{fill:#FFFFFF;}
</style>
<polygon class="st0" points="65,72.7 34.9,57.5 4.9,72.7 4.9,4.4 65,4.4 "/>
<g>
	<g>
		<path class="st1" d="M16.9,26.7h-6.5v-1.1h3.1c-0.3-0.8-0.6-1.5-0.9-2.2l1-0.4c0.5,0.9,0.8,1.8,1.1,2.6h2.2V26.7z M16.4,29.7h-5.4
			v-1.1h5.4V29.7z M16.4,33.2h-5.4v-1.1h5.4V33.2z M16.4,42.3h-1.1v-1.2h-3.1v1.7H11v-7.4h5.4V42.3z M15.3,40v-3.6h-3.1V40H15.3z
			 M30,38.8h-1.5v2.1c0,0.8-0.2,1.3-0.5,1.5c-0.4,0.3-1,0.4-1.9,0.4c-0.3,0-0.8,0-1.2,0l-0.4-1.1c0.4,0,0.9,0,1.3,0
			c0.7,0,1.2-0.1,1.4-0.2c0.2-0.1,0.3-0.3,0.3-0.6v-2.2h-7.9v4h-1.1v-4h-1.3v-1.1h1.3v-5.1h4.5V31h-5.6v-1h3.3v-1.7h-2.6v-1h2.6
			v-1.4h-2.8v-1h2.8v-1.6h1.1v1.6h3.4v-1.6h1.1v1.6h3.2v1h-3.2v1.4h2.5v1h-2.5V30h3.5v1H24v1.7h4.5v5.1H30V38.8z M22.9,35.1v-1.4
			h-3.4v1.4H22.9z M22.9,37.7v-1.5h-3.4v1.5H22.9z M25.3,27.3v-1.4h-3.4v1.4H25.3z M25.3,30v-1.7h-3.4V30H25.3z M27.4,35.1v-1.4H24
			v1.4H27.4z M27.4,37.7v-1.5H24v1.5H27.4z"/>
		<path class="st1" d="M57.1,26.5H40.7v5.3c0,4.6-0.8,8.3-2.4,11.1l-1-0.8c1.5-2.6,2.2-6.1,2.2-10.4v-6.3H48c-0.2-0.6-0.6-1.2-1-2
			l1.2-0.5c0.5,0.9,0.9,1.7,1.1,2.5h7.8V26.5z M57.1,41.2v1.1H40.5v-1.1h7.9v-3.3h-6.9v-1.1h6.9v-9.4l1.1,0v9.4h6.8v1.1h-6.8v3.3
			H57.1z M47.9,34.6L47,35.4c-0.7-1.2-1.5-2.2-2.5-3.2c-0.8,1.5-1.6,2.6-2.2,3.2l-0.9-0.8c1.6-1.7,2.8-4,3.4-6.7l1.2,0.3
			c-0.2,0.8-0.6,1.7-1,2.7C46.4,32.5,47.3,33.6,47.9,34.6z M56.9,34.5l-0.8,0.9c-0.9-1.3-1.9-2.4-2.9-3.2c-0.6,1.3-1.3,2.4-2.2,3.3
			l-0.8-0.9c1.6-1.8,2.6-4,3.1-6.6l1.1,0.3c-0.2,0.9-0.4,1.8-0.7,2.7C55,32.3,56.2,33.5,56.9,34.5z"/>
	</g>
</g>
</svg>
